HIERARCHY
ROOT Hips
{
    OFFSET 0.000000 0.000000 0.000000
    CHANNELS 6 Xposition Yposition Zposition Zrotation Xrotation Yrotation
    JOINT Spine
    {
        OFFSET -0.000000 7.246840 0.000000
        CHANNELS 3 Zrotation Xrotation Yrotation
        JOINT Spine1
        {
            OFFSET -0.000000 20.289354 0.000000
            CHANNELS 3 Zrotation Xrotation Yrotation
            JOINT Neck
            {
                OFFSET -0.000000 20.206032 1.836912
                CHANNELS 3 Zrotation Xrotation Yrotation
                JOINT Head
                {
                    OFFSET -0.000000 12.372654 -1.767522
                    CHANNELS 3 Zrotation Xrotation Yrotation
                    End Site
                    {
                        OFFSET -0.000000 22.094025 0.000000
                    }
                }
            }
            JOINT LeftShoulder
            {
                OFFSET 3.465871 17.201674 -0.568930
                CHANNELS 3 Zrotation Xrotation Yrotation
                JOINT LeftArm
                {
                    OFFSET 14.070313 0.000000 0.000000
                    CHANNELS 3 Zrotation Xrotation Yrotation
                    JOINT LeftForeArm
                    {
                        OFFSET 26.549477 0.000000 0.000000
                        CHANNELS 3 Zrotation Xrotation Yrotation
                        JOINT LeftHand
                        {
                            OFFSET 18.880413 0.000000 0.000000
                            CHANNELS 3 Zrotation Xrotation Yrotation
                            End Site
                            {
                                OFFSET 13.256415 0.000000 0.000000
                            }
                        }
                    }
                }
            }
            JOINT RightShoulder
            {
                OFFSET -3.526370 17.201674 -0.568930
                CHANNELS 3 Zrotation Xrotation Yrotation
                JOINT RightArm
                {
                    OFFSET -14.070313 0.000000 0.000000
                    CHANNELS 3 Zrotation Xrotation Yrotation
                    JOINT RightForeArm
                    {
                        OFFSET -26.549477 0.000000 0.000000
                        CHANNELS 3 Zrotation Xrotation Yrotation
                        JOINT RightHand
                        {
                            OFFSET -18.880413 0.000000 0.000000
                            CHANNELS 3 Zrotation Xrotation Yrotation
                            End Site
                            {
                                OFFSET -13.256415 0.000000 0.000000
                            }
                        }
                    }
                }
            }
        }
    }
    JOINT LeftUpLeg
    {
        OFFSET 8.837609 0.000000 0.000000
        CHANNELS 3 Zrotation Xrotation Yrotation
        JOINT LeftLeg
        {
            OFFSET -0.000000 -41.345005 0.000000
            CHANNELS 3 Zrotation Xrotation Yrotation
            JOINT LeftFoot
            {
                OFFSET -0.000000 -35.500874 0.000000
                CHANNELS 3 Zrotation Xrotation Yrotation
                JOINT LeftToeBase
                {
                    OFFSET -0.000000 -5.744446 13.256415
                    CHANNELS 3 Zrotation Xrotation Yrotation
                    End Site
                    {
                        OFFSET -0.000000 0.000000 3.535044
                    }
                }
            }
        }
    }
    JOINT RightUpLeg
    {
        OFFSET -8.837609 0.000000 0.000000
        CHANNELS 3 Zrotation Xrotation Yrotation
        JOINT RightLeg
        {
            OFFSET -0.000000 -41.345005 0.000000
            CHANNELS 3 Zrotation Xrotation Yrotation
            JOINT RightFoot
            {
                OFFSET -0.000000 -35.500874 0.000000
                CHANNELS 3 Zrotation Xrotation Yrotation
                JOINT RightToeBase
                {
                    OFFSET -0.000000 -5.744446 13.256415
                    CHANNELS 3 Zrotation Xrotation Yrotation
                    End Site
                    {
                        OFFSET -0.000000 0.000000 3.535044
                    }
                }
            }
        }
    }
}
MOTION
Frames:    12
Frame Time:    0.010000
4.307786    10.288598    -26.406979    9.502040    -37.384762    4.699127    -7.069649    34.868938    0.946692    -2.443740    21.761425    -0.806121    8.047259    31.475435    -2.232807    -0.838342    -46.258823    -1.557275    14.566185    -9.862729    -5.603404    -24.629797    26.024048    -54.362976    -3.994330    -28.533720    -69.318512    -75.825729    -13.860049    -23.295181    -3.632363    -6.269217    28.726198    13.394571    25.028790    36.583187    -7.203408    -34.513409    67.277229    74.823898    -1.453636    37.616718    6.875584    -74.895164    17.351105    -35.669151    71.010727    51.973877    71.502090    13.136600    9.920102    21.982819    -31.682919    -39.563072    -34.324535    -77.840134    -30.122889    -13.632171    65.913261    19.977734    10.172047    39.345650    -9.095791    -0.469925    12.901316    0.744813    
4.303582    10.287471    -26.410458    9.496643    -37.398037    4.699065    -6.972176    34.847198    0.906375    -2.498636    21.636740    -0.806516    8.033854    31.322489    -2.244210    -0.907795    -46.127682    -1.620174    14.621331    -9.829669    -5.617502    -24.250023    26.051067    -54.490810    -4.078371    -28.572170    -69.181290    -75.983315    -13.890318    -23.307079    -3.665907    -6.255884    28.803432    13.069281    25.244398    36.656551    -7.139594    -34.527008    67.116661    74.652588    -1.620613    37.623016    6.837379    -74.887901    17.305796    -35.607010    71.016640    51.937759    71.491043    13.117504    9.902732    22.055162    -31.554899    -39.623318    -34.200779    -77.848938    -30.028017    -13.760730    65.914223    20.099764    10.179606    39.326820    -9.102104    -0.462750    12.908111    0.733399    
4.304408    10.286689    -26.410728    9.508073    -37.431129    4.703212    -6.955290    34.799778    0.904884    -2.478505    21.596581    -0.804252    7.811690    31.064680    -2.247885    -0.569808    -45.848610    -1.495571    14.728958    -9.411791    -5.275071    -23.760107    25.748249    -55.220787    -3.976131    -28.531046    -68.766190    -76.141716    -13.714710    -23.292812    -3.695853    -6.272026    28.885462    12.738724    25.471056    36.682137    -6.994504    -34.580910    67.076607    74.435326    -1.884225    37.653034    6.867639    -74.868164    17.465506    -35.370323    71.104103    51.667778    71.440575    13.155503    9.896221    22.064308    -31.533798    -39.628529    -34.070137    -77.841751    -29.928820    -13.953251    65.915070    20.264997    10.196093    39.321228    -9.066525    -0.453285    12.884895    0.718540    
4.303399    10.284250    -26.415413    9.516829    -37.452991    4.711494    -6.865608    34.761810    0.872273    -2.560571    21.527990    -0.792126    7.795828    30.776249    -2.239898    -0.571743    -45.516224    -1.512308    14.830907    -9.450775    -5.228690    -23.472572    25.784489    -55.380657    -3.842423    -28.482332    -68.575912    -76.243195    -13.620306    -23.180967    -3.724337    -6.224831    28.928566    12.573626    25.358791    36.726170    -6.828840    -34.339806    67.056618    74.036346    -2.144394    37.418198    6.856000    -74.846954    17.440853    -35.417072    71.086563    51.707062    71.420181    13.180454    9.901642    22.069958    -31.537258    -39.639824    -33.977188    -77.829697    -29.788881    -13.900870    65.913437    20.109566    10.156715    39.337963    -8.972751    -0.453865    12.871075    0.719545    
4.303437    10.284248    -26.419010    9.526141    -37.476692    4.722411    -6.836448    34.692169    0.869854    -2.545801    21.516445    -0.783897    7.718421    30.434843    -2.171048    -0.615983    -45.119175    -1.500508    14.803355    -9.753044    -5.397136    -23.440968    25.927877    -55.121025    -3.632727    -28.323004    -68.547508    -76.319542    -13.565975    -22.828791    -3.766085    -6.194822    28.957603    12.292404    25.474173    36.764503    -6.987407    -34.283527    66.962944    73.611862    -2.304406    37.322506    6.804232    -74.823929    17.423571    -35.311573    71.102219    51.626640    71.472923    13.155431    9.857088    22.050810    -31.537237    -39.607281    -34.225426    -77.716064    -29.871204    -13.177952    65.933922    19.805948    10.311906    39.263981    -9.404413    -0.459222    12.876920    0.728000    
4.305271    10.283232    -26.421827    9.530388    -37.504791    4.726981    -6.783743    34.612644    0.863081    -2.543209    21.512455    -0.769620    7.741372    30.130785    -2.185940    -0.800138    -44.753555    -1.631481    14.789447    -9.840798    -5.452054    -23.332605    25.875643    -55.093864    -3.495986    -28.153448    -68.493011    -76.301620    -13.597331    -22.453342    -3.815165    -6.155263    28.978823    12.130171    25.480806    36.784515    -7.251866    -34.104069    66.783058    73.106598    -2.298217    37.223686    6.787048    -74.792961    17.397289    -35.335678    71.088608    51.643082    71.396225    13.163445    9.886526    22.077858    -31.526905    -39.648159    -34.197037    -77.692734    -29.791199    -13.085617    65.945557    19.664314    10.313089    39.262432    -9.369231    -0.461948    12.858916    0.732435    
4.305096    10.283220    -26.426197    9.536965    -37.539665    4.738308    -6.738853    34.542915    0.861305    -2.534511    21.498829    -0.754747    7.674010    29.863922    -2.192848    -0.777539    -44.396446    -1.654694    14.889895    -9.476801    -5.186390    -23.100866    25.540995    -55.635250    -3.313764    -28.047781    -68.212547    -76.412041    -13.430578    -22.309334    -3.832586    -6.140037    29.008640    12.046824    25.472071    36.758453    -7.918655    -33.948780    66.534134    72.270882    -3.024967    36.213028    6.753500    -74.754814    17.364874    -35.327808    71.073311    51.639271    71.415565    13.163662    9.874443    22.074343    -31.534075    -39.645687    -34.192539    -77.656250    -29.768255    -13.013652    65.961838    19.615490    10.313375    39.238003    -9.388547    -0.485354    12.847749    0.769620    
4.304210    10.282265    -26.431614    9.544806    -37.569706    4.754859    -6.722525    34.452267    0.881162    -2.488524    21.503410    -0.732645    7.598820    29.660265    -2.264651    -0.651040    -44.103741    -1.687766    14.801707    -9.783875    -5.342228    -23.261976    25.605108    -55.342781    -3.268254    -27.792088    -68.236130    -76.361519    -13.465750    -21.904043    -3.837111    -6.141351    29.033821    12.001045    25.502609    36.690411    -7.698859    -33.902103    66.582069    71.954681    -2.901798    36.652962    6.698572    -74.723358    17.308388    -35.301933    71.064758    51.615257    71.391777    13.179726    9.855728    22.068108    -31.531601    -39.633896    -34.208736    -77.629776    -29.809980    -13.103805    65.961441    19.680788    10.365932    39.223537    -9.391164    -0.475100    12.861285    0.753273    
4.304947    10.280521    -26.434195    9.554774    -37.617390    4.759926    -6.666783    34.404358    0.886295    -2.501787    21.423880    -0.706365    7.594243    29.564051    -2.271881    -0.736485    -43.865635    -1.746070    14.801763    -9.890519    -5.395616    -23.037828    25.790077    -55.321075    -2.989253    -27.802773    -68.157806    -76.333702    -13.390063    -21.792139    -3.842541    -6.113852    29.080677    12.042261    25.487389    36.609829    -7.837740    -33.821259    66.417618    71.835075    -2.967609    36.447803    6.668926    -74.671806    17.285648    -35.257973    71.057587    51.587147    71.367554    13.165704    9.852855    22.070713    -31.543459    -39.644123    -34.181080    -77.589844    -29.777908    -13.060856    65.977440    19.625059    10.338951    39.215050    -9.359234    -0.477625    12.834802    0.757447    
4.303182    10.278141    -26.440577    9.567702    -37.658070    4.775468    -6.625350    34.355381    0.892895    -2.520136    21.339993    -0.682296    7.551490    29.475313    -2.269057    -0.675043    -43.616650    -1.722468    14.811213    -9.934357    -5.370841    -22.928696    25.837837    -55.386837    -2.867793    -27.715374    -68.052216    -76.056488    -13.486048    -21.556520    -3.761944    -6.036363    29.011065    11.916479    25.473194    36.719566    -8.039131    -33.722710    66.174377    71.710716    -2.960201    36.267128    6.658587    -74.616440    17.221874    -35.403194    70.993683    51.723236    71.420692    13.182088    9.845862    22.047880    -31.572781    -39.619694    -34.176727    -77.558212    -29.791079    -13.097148    65.980286    19.619751    10.331076    39.222713    -9.322161    -0.503471    12.826769    0.798491    
4.304608    10.277631    -26.441711    9.585945    -37.709339    4.796733    -6.563693    34.265888    0.879290    -2.546069    21.330742    -0.666483    7.394156    29.315619    -2.266864    -0.448285    -43.261089    -1.634909    14.808630    -9.957990    -5.319211    -22.823391    25.852743    -55.454258    -2.871878    -27.680984    -67.958221    -76.150192    -13.337573    -21.657331    -3.764103    -6.004569    29.050161    12.006376    25.424603    36.655399    -8.232957    -33.623184    65.992226    71.654968    -2.925400    36.073433    6.598695    -74.564148    17.168175    -35.402039    70.987572    51.755745    71.372360    13.157660    9.842201    22.057100    -31.568224    -39.633137    -34.307579    -77.496620    -29.863255    -12.870831    66.028809    19.514437    10.346767    39.167347    -9.412362    -0.493657    12.843797    0.782813    
4.300989    10.275812    -26.447742    9.601630    -37.744976    4.811517    -6.529691    34.184578    0.881519    -2.554552    21.270275    -0.648406    7.293284    29.339853    -2.239828    -0.358773    -43.144852    -1.571975    14.811058    -10.006858    -5.288702    -22.741001    25.936848    -55.461655    -2.762144    -27.714556    -67.924927    -76.347618    -13.732768    -21.049192    -3.736164    -5.964064    29.103504    12.188911    25.223724    36.541801    -8.256654    -33.378349    65.861389    71.672852    -2.850129    35.801437    6.613737    -74.521812    17.180147    -35.429420    70.969093    51.773338    71.362900    13.153296    9.827179    22.058907    -31.570925    -39.637512    -34.355209    -77.461571    -29.911915    -12.804276    66.043007    19.450104    10.316239    39.170155    -9.394001    -0.519863    12.835649    0.824426    
